# xmcd
#
# Track frame offsets: 
#        150
#        2588
#        22825
#        43664
#        67336
#        86189
#        109176
#        115524
#        143964
#        164634
#
# Disc length: 2808 seconds
#
# Revision: 0
# Processed by: cddbd v1.5.2PL0 Copyright (c) Steve Scherf et al.
# Submitted via: ExactAudioCopy v0.99pb4
#
DISCID=840af60a
DTITLE=Soulkeepers - Infiltration
DYEAR=2000
DGENRE=Hip-Hop
TTITLE0=Menicus
TTITLE1=The Manifesto
TTITLE2=Killakut - Uppacutt 2
TTITLE3=Always
TTITLE4=Time Crisis [Feat Brethren]
TTITLE5=Figtree
TTITLE6=Real G'Z
TTITLE7=Warriors Revenge
TTITLE8=South Coast
TTITLE9=Persistence
EXTD=
EXTT0=
EXTT1=
EXTT2=
EXTT3=
EXTT4=
EXTT5=
EXTT6=
EXTT7=
EXTT8=
EXTT9=
PLAYORDER=
